# xmcd CD database file
#
# Track frame offsets:
#	150
#	33903
#	70247
#	98838
#	119976
#	155295
#	189768
#	227439
#	253352
#	289338
#
# Disc length: 4164 seconds
#
# Revision: 0
# Processed by: cddbd v1.5.1PL0 Copyright (c) Steve Scherf et al.
# Submitted via: CDex 1.51
#
DISCID=8a10420a
DTITLE=John Adams Group, The - Live!
DYEAR=2004
DGENRE=Jazz
TTITLE0=Fly Me To The Moon
TTITLE1=Summertime
TTITLE2=Come Together
TTITLE3=I've Got You Under My Skin
TTITLE4=Just In Time
TTITLE5=Ain't No Sunshine When She's Gone
TTITLE6=I Wish
TTITLE7=When I Fall In Love
TTITLE8=You and The Night and The Music
TTITLE9=My Funny Valentine
EXTD=YEAR: 2004
EXTT0=
EXTT1=
EXTT2=
EXTT3=
EXTT4=
EXTT5=
EXTT6=
EXTT7=
EXTT8=
EXTT9=
PLAYORDER=
